<?xml version="1.0" encoding="UTF-8" standalone="no"?>
<!-- Created with Inkscape (http://www.inkscape.org/) -->

<svg
   width="300mm"
   height="300mm"
   viewBox="0 0 300 300"
   version="1.1"
   id="svg1"
   inkscape:version="1.3.2 (091e20e, 2023-11-25, custom)"
   sodipodi:docname="logo.svg"
   xmlns:inkscape="http://www.inkscape.org/namespaces/inkscape"
   xmlns:sodipodi="http://sodipodi.sourceforge.net/DTD/sodipodi-0.dtd"
   xmlns="http://www.w3.org/2000/svg"
   xmlns:svg="http://www.w3.org/2000/svg">
  <sodipodi:namedview
     id="namedview1"
     pagecolor="#ffffff"
     bordercolor="#000000"
     borderopacity="0.25"
     inkscape:showpageshadow="2"
     inkscape:pageopacity="0.0"
     inkscape:pagecheckerboard="0"
     inkscape:deskcolor="#d1d1d1"
     inkscape:document-units="mm"
     inkscape:zoom="1.0343421"
     inkscape:cx="550.59153"
     inkscape:cy="538.98995"
     inkscape:window-width="1920"
     inkscape:window-height="1017"
     inkscape:window-x="-8"
     inkscape:window-y="-8"
     inkscape:window-maximized="1"
     inkscape:current-layer="layer1" />
  <defs
     id="defs1" />
  <g
     inkscape:label="Capa 1"
     inkscape:groupmode="layer"
     id="layer1">
    <path
       style="fill:#00ff00;stroke:#00ff00;stroke-width:0.264583"
       d="m 65.115712,65.83922 c 0,0 39.431178,42.32521 16.640682,87.1827 -22.790498,44.85749 -27.131546,54.2631 -27.131546,54.2631 0,0 62.945182,-59.68941 58.242382,-86.09745 C 108.16443,94.779535 65.115712,65.83922 65.115712,65.83922 Z"
       id="path1" />
    <path
       style="fill:#00ff00;stroke:#00ff00;stroke-width:0.264583"
       d="m 121.91108,117.75091 c 0,0 25.41322,-2.17052 22.97138,0.18088 -2.44184,2.3514 -26.86023,20.4391 -27.58374,15.01279 -0.72351,-5.42631 -2.53228,-9.94824 -1.08526,-12.2092 1.44701,-2.26096 5.69762,-2.98447 5.69762,-2.98447 z"
       id="path2" />
    <path
       style="fill:#00ff00;stroke:#00e300;stroke-width:0.264583;stroke-opacity:1"
       d="m 120.46407,138.91352 c 0,0 -5.06456,-4.34105 -8.6821,2.89403 -3.61754,7.23508 -3.97929,5.06456 -3.97929,9.76736 0,4.7028 38.70767,55.71011 38.70767,55.71011"
       id="path31" />
    <path
       style="fill:#00d400;stroke:#00e300;stroke-width:1.9336"
       d="m 212.76751,773.8896 c -0.0395,-0.81536 23.85317,-49.28789 53.09495,-107.71672 52.05573,-104.01402 59.52513,-120.98489 65.76546,-149.42268 4.27288,-19.47195 5.82147,-60.52543 3.06321,-81.20672 -7.43524,-55.74922 -31.45855,-112.91175 -68.73102,-163.54281 -4.83549,-6.56856 -8.7918,-12.41455 -8.7918,-12.9911 0,-1.42542 27.4311,19.55716 45.87468,35.09042 20.25143,17.05584 58.03866,54.50298 72.97327,72.31651 26.25031,31.31052 44.26646,64.88257 49.18887,91.6606 8.23921,44.82144 -36.31793,123.98892 -129.58,230.23302 -23.83851,27.1568 -82.74049,87.99373 -82.85762,85.57948 z"
       id="path5"
       transform="scale(0.26458333)" />
    <path
       style="fill:#00d400;stroke:#00e300;stroke-width:1.9336"
       d="m 512.99907,726.64185 c -50.37068,-67.83441 -86.027,-119.00315 -99.16459,-142.30653 -7.84562,-13.91652 -7.35242,-18.09229 4.61352,-39.06117 11.34657,-19.88354 16.93714,-24.93683 25.96702,-23.47148 3.71027,0.6021 7.52329,1.87207 8.47339,2.82216 2.20486,2.20486 94.56855,244.37502 93.5812,245.36237 -0.40537,0.40536 -15.46711,-19.10005 -33.47054,-43.34535 z"
       id="path6"
       transform="scale(0.26458333)" />
    <path
       style="fill:#00d400;stroke:#00d400;stroke-width:1.9336"
       d="m 445.92346,504.07319 c -2.18096,-3.52886 -6.9971,-29.61786 -6.9971,-37.90321 0,-9.25213 2.82984,-12.82333 13.79011,-17.40282 8.41859,-3.51752 76.52247,-7.84269 87.42705,-5.55236 l 7.43774,1.56218 -17.10572,12.76405 c -41.96086,31.31061 -80.76215,52.6644 -84.55208,46.53216 z"
       id="path7"
       transform="scale(0.26458333)" />
    <path
       style="fill:#00d400;stroke:#00d400;stroke-width:1.9336"
       d="m 218.56997,766.23225 c -0.0405,-0.77299 17.43265,-36.8829 38.82917,-80.24424 79.04542,-160.1903 76.83532,-154.20829 78.41999,-212.25692 0.88828,-32.53909 0.52688,-39.05896 -3.16183,-57.04109 -9.02479,-43.99507 -28.50991,-89.87919 -55.01255,-129.54508 -8.06175,-12.06584 -14.44423,-22.1492 -14.18329,-22.40746 1.44989,-1.435 48.60732,38.56606 70.86007,60.10672 44.4297,43.00792 69.81596,77.20258 83.01676,111.82148 11.69583,30.67213 8.98305,53.93203 -11.12221,95.36361 -20.4262,42.09296 -69.16241,108.96153 -120.16875,164.8777 -27.96979,30.66211 -67.38164,71.1533 -67.47736,69.32528 z"
       id="path9"
       transform="scale(0.26458333)" />
    <path
       style="fill:#00d400;stroke:#00d400;stroke-width:1.9336"
       d="m 444.74327,500.84385 c -3.02152,-7.9472 -6.13265,-28.8293 -5.47109,-36.72225 0.72463,-8.6454 6.41529,-13.84089 18.17299,-16.59167 12.83783,-3.00347 72.78393,-6.22935 81.97667,-4.4114 l 8.47233,1.67548 -17.26218,12.79742 c -32.87953,24.37544 -73.05339,48.044 -81.54756,48.044 -1.38567,0 -3.33919,-2.15621 -4.34116,-4.79158 z"
       id="path10"
       transform="scale(0.26458333)" />
    <path
       style="fill:#00d400;stroke:#00d400;stroke-width:1.9336"
       d="m 521.78202,736.13511 c -48.43098,-64.32867 -97.9961,-135.36344 -107.43299,-153.9687 -3.51554,-6.93106 -4.53195,-11.32408 -3.74379,-16.18097 1.19953,-7.3918 14.93796,-31.67386 21.80701,-38.54291 4.46428,-4.46429 12.9807,-5.76204 17.79319,-2.71137 3.35961,2.12968 92.59197,233.45946 90.76038,235.29106 -0.37652,0.37651 -9.00923,-10.37268 -19.1838,-23.88711 z"
       id="path11"
       transform="scale(0.26458333)" />
    <path
       style="fill:#00d400;stroke:#00d400;stroke-width:1.9336"
       d="m 444.98078,502.24217 c -2.63273,-4.91932 -6.05442,-24.86744 -6.05442,-35.29674 0,-10.22767 4.10761,-15.30839 15.45139,-19.11191 9.04896,-3.03408 73.97505,-6.95873 85.78194,-5.18535 l 9.38752,1.40999 -20.5466,15.22806 c -33.25803,24.64912 -70.08994,46.2802 -78.88804,46.33032 -1.82367,0.0104 -4.13298,-1.50808 -5.13179,-3.37437 z"
       id="path12"
       transform="scale(0.26458333)" />
    <ellipse
       style="fill:#00d400;stroke:#00d400;stroke-width:0.264583"
       id="path3"
       cx="198.37187"
       cy="146.70055"
       rx="45.404266"
       ry="55.380413" />
    <ellipse
       style="fill:#ffffff;stroke:#00d400;stroke-width:0.264583"
       id="path4"
       cx="204.51103"
       cy="158.46729"
       rx="30.056343"
       ry="35.683914" />
  </g>
</svg>
